<mxfile host="app.diagrams.net" agent="Mozilla/5.0 (Macintosh; Intel Mac OS X 10_15_7) AppleWebKit/537.36 (KHTML, like Gecko) Chrome/128.0.0.0 Safari/537.36" version="24.7.17">
  <diagram id="C5RBs43oDa-KdzZeNtuy" name="Page-1">
    <mxGraphModel dx="1434" dy="785" grid="1" gridSize="10" guides="1" tooltips="1" connect="1" arrows="1" fold="1" page="1" pageScale="1" pageWidth="827" pageHeight="1169" math="0" shadow="0">
      <root>
        <mxCell id="WIyWlLk6GJQsqaUBKTNV-0" />
        <mxCell id="WIyWlLk6GJQsqaUBKTNV-1" parent="WIyWlLk6GJQsqaUBKTNV-0" />
        <mxCell id="QK830ulVyf5u-iRMBfYN-1" value="" style="edgeStyle=orthogonalEdgeStyle;rounded=0;orthogonalLoop=1;jettySize=auto;html=1;" edge="1" parent="WIyWlLk6GJQsqaUBKTNV-1" source="QK830ulVyf5u-iRMBfYN-2" target="QK830ulVyf5u-iRMBfYN-4">
          <mxGeometry relative="1" as="geometry" />
        </mxCell>
        <mxCell id="QK830ulVyf5u-iRMBfYN-2" value="接收pipe消息" style="strokeWidth=2;html=1;shape=mxgraph.flowchart.terminator;whiteSpace=wrap;" vertex="1" parent="WIyWlLk6GJQsqaUBKTNV-1">
          <mxGeometry x="20" y="550" width="100" height="60" as="geometry" />
        </mxCell>
        <mxCell id="QK830ulVyf5u-iRMBfYN-3" value="" style="edgeStyle=orthogonalEdgeStyle;rounded=0;orthogonalLoop=1;jettySize=auto;html=1;" edge="1" parent="WIyWlLk6GJQsqaUBKTNV-1" source="QK830ulVyf5u-iRMBfYN-4" target="QK830ulVyf5u-iRMBfYN-9">
          <mxGeometry relative="1" as="geometry" />
        </mxCell>
        <mxCell id="QK830ulVyf5u-iRMBfYN-4" value="消息解析&lt;div&gt;正确？&lt;/div&gt;" style="rhombus;whiteSpace=wrap;html=1;strokeWidth=2;" vertex="1" parent="WIyWlLk6GJQsqaUBKTNV-1">
          <mxGeometry x="210" y="540" width="80" height="80" as="geometry" />
        </mxCell>
        <mxCell id="QK830ulVyf5u-iRMBfYN-5" value="打印错误日志&lt;div&gt;并忽略该消息&lt;/div&gt;" style="strokeWidth=2;html=1;shape=mxgraph.flowchart.terminator;whiteSpace=wrap;" vertex="1" parent="WIyWlLk6GJQsqaUBKTNV-1">
          <mxGeometry x="380" y="550" width="100" height="60" as="geometry" />
        </mxCell>
        <mxCell id="QK830ulVyf5u-iRMBfYN-6" style="edgeStyle=orthogonalEdgeStyle;rounded=0;orthogonalLoop=1;jettySize=auto;html=1;entryX=0;entryY=0.5;entryDx=0;entryDy=0;entryPerimeter=0;" edge="1" parent="WIyWlLk6GJQsqaUBKTNV-1" source="QK830ulVyf5u-iRMBfYN-4" target="QK830ulVyf5u-iRMBfYN-5">
          <mxGeometry relative="1" as="geometry" />
        </mxCell>
        <mxCell id="QK830ulVyf5u-iRMBfYN-7" value="否" style="edgeLabel;html=1;align=center;verticalAlign=middle;resizable=0;points=[];" vertex="1" connectable="0" parent="QK830ulVyf5u-iRMBfYN-6">
          <mxGeometry x="-0.3871" y="-1" relative="1" as="geometry">
            <mxPoint x="12" y="-1" as="offset" />
          </mxGeometry>
        </mxCell>
        <mxCell id="QK830ulVyf5u-iRMBfYN-8" value="" style="edgeStyle=orthogonalEdgeStyle;rounded=0;orthogonalLoop=1;jettySize=auto;html=1;" edge="1" parent="WIyWlLk6GJQsqaUBKTNV-1" source="QK830ulVyf5u-iRMBfYN-9" target="QK830ulVyf5u-iRMBfYN-11">
          <mxGeometry relative="1" as="geometry" />
        </mxCell>
        <mxCell id="QK830ulVyf5u-iRMBfYN-9" value="解析消息体" style="whiteSpace=wrap;html=1;strokeWidth=2;" vertex="1" parent="WIyWlLk6GJQsqaUBKTNV-1">
          <mxGeometry x="190" y="710" width="120" height="60" as="geometry" />
        </mxCell>
        <mxCell id="QK830ulVyf5u-iRMBfYN-10" value="" style="edgeStyle=orthogonalEdgeStyle;rounded=0;orthogonalLoop=1;jettySize=auto;html=1;" edge="1" parent="WIyWlLk6GJQsqaUBKTNV-1" source="QK830ulVyf5u-iRMBfYN-11" target="QK830ulVyf5u-iRMBfYN-13">
          <mxGeometry relative="1" as="geometry" />
        </mxCell>
        <mxCell id="QK830ulVyf5u-iRMBfYN-11" value="检查消息是否为空&lt;div&gt;或者ThreadID为空&lt;/div&gt;" style="whiteSpace=wrap;html=1;strokeWidth=2;" vertex="1" parent="WIyWlLk6GJQsqaUBKTNV-1">
          <mxGeometry x="390" y="710" width="120" height="60" as="geometry" />
        </mxCell>
        <mxCell id="QK830ulVyf5u-iRMBfYN-12" value="" style="edgeStyle=orthogonalEdgeStyle;rounded=0;orthogonalLoop=1;jettySize=auto;html=1;" edge="1" parent="WIyWlLk6GJQsqaUBKTNV-1" source="QK830ulVyf5u-iRMBfYN-13" target="QK830ulVyf5u-iRMBfYN-16">
          <mxGeometry relative="1" as="geometry" />
        </mxCell>
        <mxCell id="QK830ulVyf5u-iRMBfYN-13" value="检查是否为评论开关的切换，否则评论ID不能为空" style="whiteSpace=wrap;html=1;strokeWidth=2;" vertex="1" parent="WIyWlLk6GJQsqaUBKTNV-1">
          <mxGeometry x="590" y="710" width="120" height="60" as="geometry" />
        </mxCell>
        <mxCell id="QK830ulVyf5u-iRMBfYN-14" value="" style="edgeStyle=orthogonalEdgeStyle;rounded=0;orthogonalLoop=1;jettySize=auto;html=1;" edge="1" parent="WIyWlLk6GJQsqaUBKTNV-1" source="QK830ulVyf5u-iRMBfYN-16" target="QK830ulVyf5u-iRMBfYN-17">
          <mxGeometry relative="1" as="geometry" />
        </mxCell>
        <mxCell id="QK830ulVyf5u-iRMBfYN-15" value="" style="edgeStyle=orthogonalEdgeStyle;rounded=0;orthogonalLoop=1;jettySize=auto;html=1;" edge="1" parent="WIyWlLk6GJQsqaUBKTNV-1" source="QK830ulVyf5u-iRMBfYN-16" target="QK830ulVyf5u-iRMBfYN-18">
          <mxGeometry relative="1" as="geometry" />
        </mxCell>
        <mxCell id="QK830ulVyf5u-iRMBfYN-16" value="通过ThreadID和replyID获取评论信息" style="whiteSpace=wrap;html=1;strokeWidth=2;" vertex="1" parent="WIyWlLk6GJQsqaUBKTNV-1">
          <mxGeometry x="790" y="710" width="120" height="60" as="geometry" />
        </mxCell>
        <mxCell id="QK830ulVyf5u-iRMBfYN-17" value="1. 从数据库取reply信息&lt;div&gt;2. 从localcache取content&lt;/div&gt;&lt;div&gt;3. 取不到从数据库取content&lt;/div&gt;" style="shape=document;whiteSpace=wrap;html=1;boundedLbl=1;strokeWidth=2;align=left;" vertex="1" parent="WIyWlLk6GJQsqaUBKTNV-1">
          <mxGeometry x="772.5" y="540" width="155" height="110" as="geometry" />
        </mxCell>
        <mxCell id="QK830ulVyf5u-iRMBfYN-18" value="过滤机器弹幕&amp;amp;弹幕&amp;amp;鼓掌" style="whiteSpace=wrap;html=1;strokeWidth=2;" vertex="1" parent="WIyWlLk6GJQsqaUBKTNV-1">
          <mxGeometry x="990" y="710" width="120" height="60" as="geometry" />
        </mxCell>
        <mxCell id="QK830ulVyf5u-iRMBfYN-19" value="" style="edgeStyle=orthogonalEdgeStyle;rounded=0;orthogonalLoop=1;jettySize=auto;html=1;" edge="1" parent="WIyWlLk6GJQsqaUBKTNV-1" source="QK830ulVyf5u-iRMBfYN-20" target="QK830ulVyf5u-iRMBfYN-22">
          <mxGeometry relative="1" as="geometry" />
        </mxCell>
        <mxCell id="QK830ulVyf5u-iRMBfYN-20" value="初始化List图引擎" style="strokeWidth=2;html=1;shape=mxgraph.flowchart.terminator;whiteSpace=wrap;" vertex="1" parent="WIyWlLk6GJQsqaUBKTNV-1">
          <mxGeometry x="40" y="870" width="100" height="60" as="geometry" />
        </mxCell>
        <mxCell id="QK830ulVyf5u-iRMBfYN-21" value="" style="edgeStyle=orthogonalEdgeStyle;rounded=0;orthogonalLoop=1;jettySize=auto;html=1;" edge="1" parent="WIyWlLk6GJQsqaUBKTNV-1" source="QK830ulVyf5u-iRMBfYN-22" target="QK830ulVyf5u-iRMBfYN-27">
          <mxGeometry relative="1" as="geometry" />
        </mxCell>
        <mxCell id="QK830ulVyf5u-iRMBfYN-22" value="消息解析&lt;div&gt;正确？&lt;/div&gt;" style="rhombus;whiteSpace=wrap;html=1;strokeWidth=2;" vertex="1" parent="WIyWlLk6GJQsqaUBKTNV-1">
          <mxGeometry x="230" y="860" width="80" height="80" as="geometry" />
        </mxCell>
        <mxCell id="QK830ulVyf5u-iRMBfYN-23" value="打印错误日志&lt;div&gt;并忽略该消息&lt;/div&gt;" style="strokeWidth=2;html=1;shape=mxgraph.flowchart.terminator;whiteSpace=wrap;" vertex="1" parent="WIyWlLk6GJQsqaUBKTNV-1">
          <mxGeometry x="400" y="870" width="100" height="60" as="geometry" />
        </mxCell>
        <mxCell id="QK830ulVyf5u-iRMBfYN-24" style="edgeStyle=orthogonalEdgeStyle;rounded=0;orthogonalLoop=1;jettySize=auto;html=1;entryX=0;entryY=0.5;entryDx=0;entryDy=0;entryPerimeter=0;" edge="1" parent="WIyWlLk6GJQsqaUBKTNV-1" source="QK830ulVyf5u-iRMBfYN-22" target="QK830ulVyf5u-iRMBfYN-23">
          <mxGeometry relative="1" as="geometry" />
        </mxCell>
        <mxCell id="QK830ulVyf5u-iRMBfYN-25" value="否" style="edgeLabel;html=1;align=center;verticalAlign=middle;resizable=0;points=[];" vertex="1" connectable="0" parent="QK830ulVyf5u-iRMBfYN-24">
          <mxGeometry x="-0.3871" y="-1" relative="1" as="geometry">
            <mxPoint x="12" y="-1" as="offset" />
          </mxGeometry>
        </mxCell>
        <mxCell id="QK830ulVyf5u-iRMBfYN-26" value="" style="edgeStyle=orthogonalEdgeStyle;rounded=0;orthogonalLoop=1;jettySize=auto;html=1;" edge="1" parent="WIyWlLk6GJQsqaUBKTNV-1" source="QK830ulVyf5u-iRMBfYN-27" target="QK830ulVyf5u-iRMBfYN-29">
          <mxGeometry relative="1" as="geometry" />
        </mxCell>
        <mxCell id="QK830ulVyf5u-iRMBfYN-27" value="解析消息体" style="whiteSpace=wrap;html=1;strokeWidth=2;" vertex="1" parent="WIyWlLk6GJQsqaUBKTNV-1">
          <mxGeometry x="210" y="1030" width="120" height="60" as="geometry" />
        </mxCell>
        <mxCell id="QK830ulVyf5u-iRMBfYN-28" value="" style="edgeStyle=orthogonalEdgeStyle;rounded=0;orthogonalLoop=1;jettySize=auto;html=1;" edge="1" parent="WIyWlLk6GJQsqaUBKTNV-1" source="QK830ulVyf5u-iRMBfYN-29" target="QK830ulVyf5u-iRMBfYN-31">
          <mxGeometry relative="1" as="geometry" />
        </mxCell>
        <mxCell id="QK830ulVyf5u-iRMBfYN-29" value="检查消息是否为空&lt;div&gt;或者ThreadID为空&lt;/div&gt;" style="whiteSpace=wrap;html=1;strokeWidth=2;" vertex="1" parent="WIyWlLk6GJQsqaUBKTNV-1">
          <mxGeometry x="410" y="1030" width="120" height="60" as="geometry" />
        </mxCell>
        <mxCell id="QK830ulVyf5u-iRMBfYN-30" value="" style="edgeStyle=orthogonalEdgeStyle;rounded=0;orthogonalLoop=1;jettySize=auto;html=1;" edge="1" parent="WIyWlLk6GJQsqaUBKTNV-1" source="QK830ulVyf5u-iRMBfYN-31" target="QK830ulVyf5u-iRMBfYN-34">
          <mxGeometry relative="1" as="geometry" />
        </mxCell>
        <mxCell id="QK830ulVyf5u-iRMBfYN-31" value="检查是否为评论开关的切换，否则评论ID不能为空" style="whiteSpace=wrap;html=1;strokeWidth=2;" vertex="1" parent="WIyWlLk6GJQsqaUBKTNV-1">
          <mxGeometry x="610" y="1030" width="120" height="60" as="geometry" />
        </mxCell>
        <mxCell id="QK830ulVyf5u-iRMBfYN-32" value="" style="edgeStyle=orthogonalEdgeStyle;rounded=0;orthogonalLoop=1;jettySize=auto;html=1;" edge="1" parent="WIyWlLk6GJQsqaUBKTNV-1" source="QK830ulVyf5u-iRMBfYN-34" target="QK830ulVyf5u-iRMBfYN-35">
          <mxGeometry relative="1" as="geometry" />
        </mxCell>
        <mxCell id="QK830ulVyf5u-iRMBfYN-33" value="" style="edgeStyle=orthogonalEdgeStyle;rounded=0;orthogonalLoop=1;jettySize=auto;html=1;" edge="1" parent="WIyWlLk6GJQsqaUBKTNV-1" source="QK830ulVyf5u-iRMBfYN-34" target="QK830ulVyf5u-iRMBfYN-36">
          <mxGeometry relative="1" as="geometry" />
        </mxCell>
        <mxCell id="QK830ulVyf5u-iRMBfYN-34" value="通过ThreadID和replyID获取评论信息" style="whiteSpace=wrap;html=1;strokeWidth=2;" vertex="1" parent="WIyWlLk6GJQsqaUBKTNV-1">
          <mxGeometry x="810" y="1030" width="120" height="60" as="geometry" />
        </mxCell>
        <mxCell id="QK830ulVyf5u-iRMBfYN-35" value="1. 从数据库取reply信息&lt;div&gt;2. 从localcache取content&lt;/div&gt;&lt;div&gt;3. 取不到从数据库取content&lt;/div&gt;" style="shape=document;whiteSpace=wrap;html=1;boundedLbl=1;strokeWidth=2;align=left;" vertex="1" parent="WIyWlLk6GJQsqaUBKTNV-1">
          <mxGeometry x="792.5" y="860" width="155" height="110" as="geometry" />
        </mxCell>
        <mxCell id="QK830ulVyf5u-iRMBfYN-36" value="过滤机器弹幕&amp;amp;弹幕&amp;amp;鼓掌" style="whiteSpace=wrap;html=1;strokeWidth=2;" vertex="1" parent="WIyWlLk6GJQsqaUBKTNV-1">
          <mxGeometry x="1010" y="1030" width="120" height="60" as="geometry" />
        </mxCell>
      </root>
    </mxGraphModel>
  </diagram>
</mxfile>
